<svg width="31" height="31" viewBox="0 0 31 31" fill="none" xmlns="http://www.w3.org/2000/svg">
<rect x="1" y="1.17798" width="29" height="29" rx="14.5" fill="#E6E8E8"/>
<rect x="1" y="1.17798" width="29" height="29" rx="14.5" stroke="#828B8C"/>
<path d="M16.6852 15.678L19.2568 13.1063C19.5811 12.7821 19.5811 12.2454 19.2568 11.9212C18.9326 11.5969 18.3959 11.5969 18.0716 11.9212L15.5 14.4928L12.9284 11.9212C12.6041 11.5969 12.0674 11.5969 11.7432 11.9212C11.4189 12.2454 11.4189 12.7821 11.7432 13.1063L14.3148 15.678L11.7432 18.2496C11.4189 18.5739 11.4189 19.1105 11.7432 19.4348C11.9109 19.6025 12.1233 19.6808 12.3358 19.6808C12.5482 19.6808 12.7607 19.6025 12.9284 19.4348L15.5 16.8632L18.0716 19.4348C18.2393 19.6025 18.4518 19.6808 18.6642 19.6808C18.8767 19.6808 19.0891 19.6025 19.2568 19.4348C19.5811 19.1105 19.5811 18.5739 19.2568 18.2496L16.6852 15.678Z" fill="#828B8C"/>
</svg>
