<svg width="20" height="21" viewBox="0 0 20 21" fill="none" xmlns="http://www.w3.org/2000/svg">
<path d="M17.5 4.875H2.5C2.15833 4.875 1.875 4.59167 1.875 4.25C1.875 3.90833 2.15833 3.625 2.5 3.625H17.5C17.8417 3.625 18.125 3.90833 18.125 4.25C18.125 4.59167 17.8417 4.875 17.5 4.875Z" fill="#9588E1"/>
<path opacity="0.4" d="M17.5001 9.04166H9.6084C9.26673 9.04166 8.9834 8.75832 8.9834 8.41666C8.9834 8.07499 9.26673 7.79166 9.6084 7.79166H17.5001C17.8417 7.79166 18.1251 8.07499 18.1251 8.41666C18.1251 8.75832 17.8417 9.04166 17.5001 9.04166Z" fill="#9588E1"/>
<path d="M17.5 13.2083H2.5C2.15833 13.2083 1.875 12.925 1.875 12.5833C1.875 12.2417 2.15833 11.9583 2.5 11.9583H17.5C17.8417 11.9583 18.125 12.2417 18.125 12.5833C18.125 12.925 17.8417 13.2083 17.5 13.2083Z" fill="#9588E1"/>
<path opacity="0.4" d="M17.5001 17.375H9.6084C9.26673 17.375 8.9834 17.0917 8.9834 16.75C8.9834 16.4083 9.26673 16.125 9.6084 16.125H17.5001C17.8417 16.125 18.1251 16.4083 18.1251 16.75C18.1251 17.0917 17.8417 17.375 17.5001 17.375Z" fill="#9588E1"/>
</svg>
