<svg width="20" height="20" viewBox="0 0 20 20" fill="none" xmlns="http://www.w3.org/2000/svg">
<path d="M16.6668 5.79167V14.2083C16.5335 14.1833 16.3918 14.1667 16.2502 14.1667C15.1002 14.1667 14.1668 15.1 14.1668 16.25C14.1668 16.3917 14.1835 16.5333 14.2085 16.6667H5.79183C5.81683 16.5333 5.8335 16.3917 5.8335 16.25C5.8335 15.1 4.90016 14.1667 3.75016 14.1667C3.6085 14.1667 3.46683 14.1833 3.3335 14.2083V5.79167C3.46683 5.81667 3.6085 5.83333 3.75016 5.83333C4.90016 5.83333 5.8335 4.9 5.8335 3.75C5.8335 3.60833 5.81683 3.46667 5.79183 3.33333H14.2085C14.1835 3.46667 14.1668 3.60833 14.1668 3.75C14.1668 4.9 15.1002 5.83333 16.2502 5.83333C16.3918 5.83333 16.5335 5.81667 16.6668 5.79167Z" stroke="#9588E1" stroke-width="1.5" stroke-linecap="round" stroke-linejoin="round"/>
<path d="M5.83317 3.75C5.83317 4.9 4.89984 5.83333 3.74984 5.83333C3.60817 5.83333 3.4665 5.81667 3.33317 5.79167C2.38317 5.6 1.6665 4.75833 1.6665 3.75C1.6665 2.6 2.59984 1.66667 3.74984 1.66667C4.75817 1.66667 5.59984 2.38333 5.7915 3.33333C5.8165 3.46667 5.83317 3.60833 5.83317 3.75Z" stroke="#9588E1" stroke-width="1.5" stroke-linecap="round" stroke-linejoin="round"/>
<path d="M18.3332 3.75C18.3332 4.75833 17.6165 5.6 16.6665 5.79167C16.5332 5.81667 16.3915 5.83333 16.2498 5.83333C15.0998 5.83333 14.1665 4.9 14.1665 3.75C14.1665 3.60833 14.1832 3.46667 14.2082 3.33333C14.3998 2.38333 15.2415 1.66667 16.2498 1.66667C17.3998 1.66667 18.3332 2.6 18.3332 3.75Z" stroke="#9588E1" stroke-width="1.5" stroke-linecap="round" stroke-linejoin="round"/>
<path d="M5.83317 16.25C5.83317 16.3917 5.8165 16.5333 5.7915 16.6667C5.59984 17.6167 4.75817 18.3333 3.74984 18.3333C2.59984 18.3333 1.6665 17.4 1.6665 16.25C1.6665 15.2417 2.38317 14.4 3.33317 14.2083C3.4665 14.1833 3.60817 14.1667 3.74984 14.1667C4.89984 14.1667 5.83317 15.1 5.83317 16.25Z" stroke="#9588E1" stroke-width="1.5" stroke-linecap="round" stroke-linejoin="round"/>
<path d="M18.3332 16.25C18.3332 17.4 17.3998 18.3333 16.2498 18.3333C15.2415 18.3333 14.3998 17.6167 14.2082 16.6667C14.1832 16.5333 14.1665 16.3917 14.1665 16.25C14.1665 15.1 15.0998 14.1667 16.2498 14.1667C16.3915 14.1667 16.5332 14.1833 16.6665 14.2083C17.6165 14.4 18.3332 15.2417 18.3332 16.25Z" stroke="#9588E1" stroke-width="1.5" stroke-linecap="round" stroke-linejoin="round"/>
</svg>
