<svg width="20" height="20" viewBox="0 0 20 20" fill="none" xmlns="http://www.w3.org/2000/svg">
<path d="M18.3083 4.58332V7.91666C18.3083 9.52499 16.9999 10.8333 15.3916 10.8333H14.1416V10.2083C14.1416 7.79166 12.1833 5.83332 9.7666 5.83332H9.1416V4.58332C9.1416 2.97499 10.4499 1.66666 12.0583 1.66666H15.3916C17.0083 1.66666 18.3083 2.97499 18.3083 4.58332Z" fill="#9588E1"/>
<path opacity="0.4" d="M9.7666 5.83334H9.1416H5.80827C3.50827 5.83334 1.6416 7.70001 1.6416 10V14.1667C1.6416 16.4667 3.50827 18.3333 5.80827 18.3333H9.97493C12.2749 18.3333 14.1416 16.4667 14.1416 14.1667V10.8333V10.2083C14.1416 7.79168 12.1833 5.83334 9.7666 5.83334Z" fill="#9588E1"/>
</svg>
