<svg width="20" height="20" viewBox="0 0 20 20" fill="none" xmlns="http://www.w3.org/2000/svg">
<g clip-path="url(#clip0_191_2906)">
<path d="M11.7749 9.45002C12.0999 8.08335 10.9083 6.89164 9.54161 7.21664C8.89994 7.37497 8.37494 7.89999 8.21661 8.54166C7.89161 9.90833 9.08327 11.1 10.4499 10.775C11.0999 10.6167 11.6249 10.0917 11.7749 9.45002Z" fill="#9588E1"/>
<path opacity="0.4" d="M5.01647 14.975C4.86647 14.975 4.70813 14.9167 4.59146 14.8083C2.97479 13.3083 2.0498 11.1916 2.0498 8.99165C2.0498 4.60831 5.61647 1.04167 9.9998 1.04167C14.3831 1.04167 17.9498 4.60831 17.9498 8.99165C17.9498 11.2083 17.0581 13.2583 15.4415 14.7833C15.1915 15.0167 14.7915 15.0084 14.5581 14.7584C14.3248 14.5084 14.3331 14.1084 14.5831 13.875C15.9498 12.5917 16.6998 10.8667 16.6998 8.99999C16.6998 5.30832 13.6915 2.30001 9.9998 2.30001C6.30813 2.30001 3.2998 5.30832 3.2998 8.99999C3.2998 10.8833 4.05813 12.6167 5.44146 13.9C5.69146 14.1333 5.70814 14.5333 5.47481 14.7833C5.34981 14.9083 5.18314 14.975 5.01647 14.975Z" fill="#9588E1"/>
<path opacity="0.4" d="M13.3331 12.75C13.1831 12.75 13.0248 12.6916 12.9081 12.5833C12.6581 12.35 12.6414 11.95 12.8831 11.7C13.5748 10.9666 13.9581 9.99999 13.9581 8.99999C13.9581 6.81666 12.1831 5.05 10.0081 5.05C7.8331 5.05 6.05811 6.82499 6.05811 8.99999C6.05811 10.0083 6.44143 10.9666 7.1331 11.7C7.36643 11.95 7.3581 12.35 7.1081 12.5833C6.8581 12.825 6.4581 12.8083 6.22477 12.5583C5.31644 11.5917 4.80811 10.325 4.80811 8.99999C4.80811 6.13332 7.14143 3.8 10.0081 3.8C12.8748 3.8 15.2081 6.13332 15.2081 8.99999C15.2081 10.325 14.7081 11.5917 13.7914 12.5583C13.6664 12.6833 13.4998 12.75 13.3331 12.75Z" fill="#9588E1"/>
<path d="M8.58344 13.8833L7.38344 15.375C6.43344 16.5667 7.2751 18.325 8.8001 18.325H11.1918C12.7168 18.325 13.5668 16.5583 12.6084 15.375L11.4084 13.8833C10.6918 12.975 9.30844 12.975 8.58344 13.8833Z" fill="#9588E1"/>
</g>
<defs>
<clipPath id="clip0_191_2906">
<rect width="20" height="20" fill="white"/>
</clipPath>
</defs>
</svg>
