<svg width="31" height="31" viewBox="0 0 31 31" fill="none" xmlns="http://www.w3.org/2000/svg">
<rect x="1" y="1.17798" width="29" height="29" rx="14.5" fill="#F5D6D4"/>
<rect x="1" y="1.17798" width="29" height="29" rx="14.5" stroke="#CE3428"/>
<path d="M15.65 17.4405C15.1785 17.4405 14.7875 17.0495 14.7875 16.578V10.5405C14.7875 10.069 15.1785 9.67798 15.65 9.67798C16.1215 9.67798 16.5125 10.069 16.5125 10.5405V16.578C16.5125 17.0495 16.1215 17.4405 15.65 17.4405Z" fill="#CE3428"/>
<path d="M15.65 21.4655C15.5005 21.4655 15.351 21.4309 15.213 21.3734C15.0635 21.3159 14.9485 21.2355 14.8335 21.132C14.73 21.017 14.6495 20.8905 14.5805 20.7525C14.523 20.6145 14.5 20.465 14.5 20.3155C14.5 20.0165 14.615 19.7174 14.8335 19.4989C14.9485 19.3954 15.0635 19.315 15.213 19.2575C15.6385 19.0735 16.1445 19.1769 16.4665 19.4989C16.57 19.6139 16.6505 19.729 16.708 19.8785C16.7655 20.0165 16.8 20.166 16.8 20.3155C16.8 20.465 16.7655 20.6145 16.708 20.7525C16.6505 20.8905 16.57 21.017 16.4665 21.132C16.248 21.3505 15.9605 21.4655 15.65 21.4655Z" fill="#CE3428"/>
</svg>
